<?xml version="1.0" encoding="UTF-8"?>
<svg id="Camada_1" xmlns="http://www.w3.org/2000/svg" xmlns:xlink="http://www.w3.org/1999/xlink" version="1.1" viewBox="0 0 794.9 523.9">
  <!-- Generator: Adobe Illustrator 29.2.1, SVG Export Plug-In . SVG Version: 2.1.0 Build 116)  -->
  <defs>
    <style>
      .st0 {
        font-family: Didot, Didot;
        font-size: 66.2px;
      }

      .st0, .st1 {
        fill: #1d1d1b;
      }
    </style>
  </defs>
  <text class="st0" transform="translate(208.4 289.9)"><tspan x="0" y="0">VITORIA AMARI</tspan></text>
  <g>
    <rect class="st1" x="113" y="273.5" width="11.7" height="2.1"/>
    <g>
      <polyline class="st1" points="60.9 205.5 60.9 205.5 60.1 203.4 37.1 203.4 37.1 205.5 44.5 205.5 85.7 313.7 89.5 313.7 130.3 205.5 137.6 205.5 137.6 203.5 128.4 203.5 127.7 205.5 127.7 205.5 94.5 293.5 60.9 205.5"/>
      <polyline points="149.6 275 165.5 317 165.5 317.2 166.3 319.3 188.9 319.2 188.9 317.2 181.8 317 140.7 208.8 137.1 208.8 96.4 317 89.4 317 89.4 319.1 98 319.1 98.8 317 98.8 317 114.6 275.1 114.6 275.1 115.5 272.9 132.1 228.9 148.7 272.9"/>
    </g>
  </g>
</svg>